<svg preserveAspectRatio="none" overflow="visible" style="display: block;" width="79" height="79" viewBox="0 0 79 79" fill="none" xmlns="http://www.w3.org/2000/svg">
<g id="M logo">
<path id="Vector" d="M19.8139 47.8865C19.525 47.8865 19.2727 47.329 19.0571 46.2141C18.8414 45.0992 18.7316 43.61 18.7316 41.7383C18.7316 39.8665 18.8414 38.4953 19.0571 37.3967C19.2727 36.3021 19.525 35.7528 19.8139 35.7528V47.8906V47.8865ZM19.8139 47.8865V35.7487C21.1811 35.7487 22.357 35.586 23.3458 35.2645C24.3346 34.939 25.2786 34.3571 26.1778 33.5108C27.077 32.6685 28.0658 31.5048 29.1441 30.0318C30.1166 28.7745 31.1582 27.4887 32.2731 26.1744C33.388 24.8601 34.6372 23.6475 36.0207 22.5326C37.4041 21.4177 38.9503 20.5185 40.6593 19.8349C42.3683 19.1513 44.301 18.8095 46.4576 18.8095C48.6142 18.8095 50.4859 19.2408 52.1745 20.1035C53.8631 20.9661 55.3117 22.1909 56.5161 23.7696C57.7205 25.3525 58.6483 27.2405 59.2952 29.4336C59.9422 31.6268 60.2677 34.0723 60.2677 36.77C60.2677 38.9266 60.0154 41.1645 59.5109 43.4839C59.0063 45.8032 58.3431 47.9353 57.5171 49.8762L47.3243 46.1002C48.1503 44.6639 48.781 43.1543 49.2123 41.5714C49.6436 39.9886 49.8593 38.3895 49.8593 36.77C49.8593 34.6867 49.5337 33.1568 48.8868 32.1843C48.2398 31.2118 47.3772 30.7276 46.2989 30.7276C45.5095 30.7276 44.6266 30.988 43.6541 31.5088C42.6816 32.0297 41.6765 32.7865 40.6349 33.7753C39.5932 34.764 38.5312 35.9603 37.453 37.3641C35.6178 39.8828 33.8316 41.9051 32.086 43.431C30.3404 44.9609 28.5012 46.0839 26.5562 46.8041C24.6153 47.5244 22.3652 47.8824 19.8139 47.8824V47.8865ZM56.923 37.7466L57.5171 49.8844C53.7045 50.1 50.3964 50.0715 47.5928 49.803C44.7893 49.5344 42.3317 49.038 40.2321 48.3178C38.1284 47.5976 36.2567 46.6821 34.6209 45.5672C33.4776 44.79 32.4888 43.9721 31.9354 43.4839C31.1623 42.8084 30.5398 42.1858 30.0637 41.6854C32.2731 39.366 34.4867 37.0467 36.6961 34.7274C37.0705 35.1058 37.6361 35.6104 38.401 36.0864C38.4621 36.1231 38.6167 36.2207 38.812 36.3265C39.7275 36.8311 40.5739 37.0833 41.1435 37.2339C42.0875 37.4821 44.2278 37.9663 47.5684 37.9867C47.662 37.9867 47.7231 37.9867 47.7515 37.9867C50.3394 38.007 53.3952 37.9256 56.9189 37.7425L56.923 37.7466Z" fill="white"/>
<path id="Vector_2" d="M41.6343 52.8469L42.2878 55.8695L22.3029 60.1904L21.6494 57.1678L41.6343 52.8469Z" fill="white"/>
<path id="Vector_3" d="M38.4571 36.115L31.9834 43.5246C32.2641 43.7972 32.6507 44.1553 33.1308 44.55C33.9324 45.2051 34.5997 45.6323 35.0473 45.9172C35.3199 46.0921 35.8936 46.4461 36.6586 46.849C36.9353 46.9954 37.6555 47.3657 38.6361 47.7726C38.9535 47.9028 39.8853 48.2853 41.1752 48.6719C43.5555 49.3921 45.4679 49.6321 46.1637 49.7135C47.1199 49.8193 47.9215 49.86 48.4953 49.8763C48.9347 45.909 49.3782 41.9458 49.8177 37.9786C49.423 37.9704 48.2267 37.9501 47.828 37.946C45.6104 37.9053 45.5046 37.9053 45.2645 37.889C45.2645 37.889 43.6857 37.7832 42.0663 37.4496C41.8588 37.4089 41.6757 37.3601 41.6635 37.3601C41.224 37.2502 40.9026 37.1322 40.6991 37.059C40.1376 36.8637 39.3726 36.5666 38.4612 36.115H38.4571Z" fill="#00FFF8"/>
<path id="Vector_4" d="M38.4571 36.115L31.9834 43.5246C32.1258 43.6833 32.2926 43.8542 32.4838 44.0251C32.6425 44.1675 32.7972 44.2896 32.9436 44.3994C32.9436 44.3994 32.9436 44.3994 32.9477 44.3994C33.0983 44.5174 33.2081 44.611 33.2244 44.6273C33.3546 44.7331 33.7005 45.0057 34.1114 45.2946C34.2254 45.376 34.319 45.4411 34.3759 45.4777C34.4492 45.5265 34.5143 45.5713 34.5631 45.6038C34.616 45.6364 34.8194 45.7707 35.1083 45.9538C35.1205 45.9619 35.206 46.0148 35.2914 46.0677C35.4745 46.1816 35.7512 46.3485 36.1297 46.56C37.6352 43.3862 39.1407 40.2124 40.6462 37.0386C40.3532 36.9328 39.926 36.7782 39.4621 36.5788C39.1407 36.4405 38.8681 36.3143 38.7745 36.2696C38.6443 36.2085 38.5385 36.1557 38.4571 36.115Z" fill="#00B7FF"/>
</g>
</svg>
