<svg preserveAspectRatio="none" overflow="visible" style="display: block;" width="31.6184" height="31.6184" viewBox="0 0 31.6184 31.6184" fill="none" xmlns="http://www.w3.org/2000/svg">
<g id="KMoNsLjb90Gjj2b7hG2bwsQeM.svg" clip-path="url(#clip0_0_91)">
<path id="Vector" d="M15.8097 -3.97925e-05C24.5411 -3.97925e-05 31.6189 7.07774 31.6189 15.8092V26.8756C31.6189 28.1334 31.1192 29.3398 30.2298 30.2292C29.3403 31.1187 28.134 31.6183 26.8761 31.6183H16.6002V24.6829C16.6002 23.1004 16.6966 21.4609 17.5266 20.114C18.1208 19.1487 18.9157 18.3225 19.8573 17.6915C20.7989 17.0604 21.8652 16.6392 22.9839 16.4565L23.2867 16.4075C23.4115 16.3649 23.5198 16.2842 23.5965 16.177C23.6733 16.0697 23.7145 15.9411 23.7145 15.8092C23.7145 15.6773 23.6733 15.5487 23.5965 15.4414C23.5198 15.3341 23.4115 15.2534 23.2867 15.2108L22.9839 15.1618C21.3494 14.8948 19.84 14.1211 18.6689 12.95C17.4978 11.7789 16.7241 10.2695 16.4571 8.63494L16.4081 8.3322C16.3654 8.20738 16.2848 8.09904 16.1775 8.02232C16.0702 7.9456 15.9416 7.90436 15.8097 7.90436C15.6778 7.90436 15.5492 7.9456 15.4419 8.02232C15.3346 8.09904 15.254 8.20738 15.2113 8.3322L15.1623 8.63494C14.9797 9.75366 14.5585 10.82 13.9275 11.7616C13.2964 12.7032 12.4702 13.4981 11.5049 14.0923C10.1579 14.9223 8.5185 15.0187 6.936 15.0187H0.0194824C0.432893 6.65484 7.34388 -3.97925e-05 15.8097 -3.97925e-05Z" fill="#F06225"/>
<path id="Vector_2" d="M0 16.5997H6.93549C8.51799 16.5997 10.1574 16.6961 11.5043 17.5261C12.5572 18.1749 13.4435 19.0612 14.0923 20.114C14.9223 21.461 15.0187 23.1004 15.0187 24.6829V31.6184H4.74276C3.4849 31.6184 2.27856 31.1187 1.38912 30.2293C0.499682 29.3398 0 28.1335 0 26.8756L0 16.5997ZM31.6184 1.58092C31.6184 2.00021 31.4518 2.40232 31.1553 2.6988C30.8589 2.99528 30.4568 3.16184 30.0375 3.16184C29.6182 3.16184 29.2161 2.99528 28.9196 2.6988C28.6231 2.40232 28.4565 2.00021 28.4565 1.58092C28.4565 1.16163 28.6231 0.75952 28.9196 0.463041C29.2161 0.166561 29.6182 0 30.0375 0C30.4568 0 30.8589 0.166561 31.1553 0.463041C31.4518 0.75952 31.6184 1.16163 31.6184 1.58092Z" fill="#F06225"/>
</g>
<defs>
<clipPath id="clip0_0_91">
<rect width="31.6184" height="31.6184" fill="white"/>
</clipPath>
</defs>
</svg>
